M48
;Layer_Color=9474304
;FILE_FORMAT=2:4
METRIC,LZ
;TYPE=PLATED
T1F00S00C0.4000
T2F00S00C0.5080
T3F00S00C0.5080
T4F00S00C0.7620
T5F00S00C1.5240
%
T01
X424942Y1016
X579882Y172974
Y18923
Y204724
Y219456
Y235204
Y311724
Y32798
Y343475
X302514Y237998
X254Y18034
X579882Y358206
Y373955
T02
X14732Y14224
X200152Y143256
T03
X663603Y0559
X02286
Y50038
T04
X4064Y0254
X4318
X4572
X508
X5334
X5588
X5842
X6096
X635
X381
X3556
X3302
X3048
X2794
X28956Y508
X31496
X34036
X36576
X26416
X23876
X21336
X18796
X39116
X41656
X45974
X48514
X51054
X53594
X56134
X58674
X61214
X63754
T05
X0508Y254
Y3302
M30
