G04*
G04 #@! TF.GenerationSoftware,Altium Limited,Altium Designer,22.10.1 (41)*
G04*
G04 Layer_Color=128*
%FSLAX44Y44*%
%MOMM*%
G71*
G04*
G04 #@! TF.SameCoordinates,3906EDFC-F3CD-4CEC-90A2-A8884CA3E33F*
G04*
G04*
G04 #@! TF.FilePolarity,Positive*
G04*
G01*
G75*
%ADD40C,0.0508*%
D40*
X631190Y25400D02*
X638810D01*
X635000Y21590D02*
Y29210D01*
X605790Y25400D02*
X613410D01*
X609600Y21590D02*
Y29210D01*
X580390Y25400D02*
X588010D01*
X584200Y21590D02*
Y29210D01*
X554990Y25400D02*
X562610D01*
X558800Y21590D02*
Y29210D01*
X529590Y25400D02*
X537210D01*
X533400Y21590D02*
Y29210D01*
X504190Y25400D02*
X511810D01*
X508000Y21590D02*
Y29210D01*
X361950Y508000D02*
X369570D01*
X365760Y504190D02*
Y511810D01*
X336550Y508000D02*
X344170D01*
X340360Y504190D02*
Y511810D01*
X311150Y508000D02*
X318770D01*
X314960Y504190D02*
Y511810D01*
X285750Y508000D02*
X293370D01*
X289560Y504190D02*
Y511810D01*
X260350Y508000D02*
X267970D01*
X264160Y504190D02*
Y511810D01*
X234950Y508000D02*
X242570D01*
X238760Y504190D02*
Y511810D01*
X209550Y508000D02*
X217170D01*
X213360Y504190D02*
Y511810D01*
X184150Y508000D02*
X191770D01*
X187960Y504190D02*
Y511810D01*
X412750Y508000D02*
X420370D01*
X416560Y504190D02*
Y511810D01*
X387350Y508000D02*
X394970D01*
X391160Y504190D02*
Y511810D01*
X455930Y508000D02*
X463550D01*
X459740Y504190D02*
Y511810D01*
X481330Y508000D02*
X488950D01*
X485140Y504190D02*
Y511810D01*
X506730Y508000D02*
X514350D01*
X510540Y504190D02*
Y511810D01*
X532130Y508000D02*
X539750D01*
X535940Y504190D02*
Y511810D01*
X557530Y508000D02*
X565150D01*
X561340Y504190D02*
Y511810D01*
X582930Y508000D02*
X590550D01*
X586740Y504190D02*
Y511810D01*
X608330Y508000D02*
X615950D01*
X612140Y504190D02*
Y511810D01*
X633730Y508000D02*
X641350D01*
X637540Y504190D02*
Y511810D01*
X275590Y25400D02*
X283210D01*
X279400Y21590D02*
Y29210D01*
X300990Y25400D02*
X308610D01*
X304800Y21590D02*
Y29210D01*
X326390Y25400D02*
X334010D01*
X330200Y21590D02*
Y29210D01*
X351790Y25400D02*
X359410D01*
X355600Y21590D02*
Y29210D01*
X377190Y25400D02*
X384810D01*
X381000Y21590D02*
Y29210D01*
X402590Y25400D02*
X410210D01*
X406400Y21590D02*
Y29210D01*
X427990Y25400D02*
X435610D01*
X431800Y21590D02*
Y29210D01*
X453390Y25400D02*
X461010D01*
X457200Y21590D02*
Y29210D01*
X661063Y55900D02*
X666143D01*
X663603Y53360D02*
Y58440D01*
X20320Y55900D02*
X25400D01*
X22860Y53360D02*
Y58440D01*
X20320Y500380D02*
X25400D01*
X22860Y497840D02*
Y502920D01*
X43180Y254000D02*
X58420D01*
X50800Y246380D02*
Y261620D01*
X43180Y330200D02*
X58420D01*
X50800Y322580D02*
Y337820D01*
X300514Y237998D02*
X304514D01*
X302514Y235998D02*
Y239998D01*
X197612Y143256D02*
X202692D01*
X200152Y140716D02*
Y145796D01*
X577882Y343475D02*
X581882D01*
X579882Y341474D02*
Y345475D01*
X577882Y358206D02*
X581882D01*
X579882Y356207D02*
Y360206D01*
X577882Y373955D02*
X581882D01*
X579882Y371954D02*
Y375955D01*
X577882Y327980D02*
X581882D01*
X579882Y325980D02*
Y329981D01*
X577882Y311724D02*
X581882D01*
X579882Y309725D02*
Y313724D01*
X577882Y172974D02*
X581882D01*
X579882Y170974D02*
Y174974D01*
X577882Y189230D02*
X581882D01*
X579882Y187230D02*
Y191230D01*
X577882Y235204D02*
X581882D01*
X579882Y233204D02*
Y237204D01*
X577882Y219456D02*
X581882D01*
X579882Y217456D02*
Y221456D01*
X577882Y204724D02*
X581882D01*
X579882Y202724D02*
Y206724D01*
X422942Y101600D02*
X426942D01*
X424942Y99600D02*
Y103600D01*
X252000Y180340D02*
X256000D01*
X254000Y178340D02*
Y182340D01*
X144780Y142240D02*
X149860D01*
X147320Y139700D02*
Y144780D01*
M02*
