G04*
G04 #@! TF.GenerationSoftware,Altium Limited,Altium Designer,22.10.1 (41)*
G04*
G04 Layer_Color=2752767*
%FSLAX44Y44*%
%MOMM*%
G71*
G04*
G04 #@! TF.SameCoordinates,3906EDFC-F3CD-4CEC-90A2-A8884CA3E33F*
G04*
G04*
G04 #@! TF.FilePolarity,Positive*
G04*
G01*
G75*
%ADD40C,0.0508*%
%ADD41C,0.0677*%
D40*
X632968Y23368D02*
Y27432D01*
X637032D01*
Y23368D01*
X632968D01*
X607568D02*
Y27432D01*
X611632D01*
Y23368D01*
X607568D01*
X582168D02*
Y27432D01*
X586232D01*
Y23368D01*
X582168D01*
X556768D02*
Y27432D01*
X560832D01*
Y23368D01*
X556768D01*
X531368D02*
Y27432D01*
X535432D01*
Y23368D01*
X531368D01*
X505968D02*
Y27432D01*
X510032D01*
Y23368D01*
X505968D01*
X363728Y505968D02*
Y510032D01*
X367792D01*
Y505968D01*
X363728D01*
X338328D02*
Y510032D01*
X342392D01*
Y505968D01*
X338328D01*
X312928D02*
Y510032D01*
X316992D01*
Y505968D01*
X312928D01*
X287528D02*
Y510032D01*
X291592D01*
Y505968D01*
X287528D01*
X262128D02*
Y510032D01*
X266192D01*
Y505968D01*
X262128D01*
X236728D02*
Y510032D01*
X240792D01*
Y505968D01*
X236728D01*
X211328D02*
Y510032D01*
X215392D01*
Y505968D01*
X211328D01*
X185928D02*
Y510032D01*
X189992D01*
Y505968D01*
X185928D01*
X414528D02*
Y510032D01*
X418592D01*
Y505968D01*
X414528D01*
X389128D02*
Y510032D01*
X393192D01*
Y505968D01*
X389128D01*
X457708D02*
Y510032D01*
X461772D01*
Y505968D01*
X457708D01*
X483108D02*
Y510032D01*
X487172D01*
Y505968D01*
X483108D01*
X508508D02*
Y510032D01*
X512572D01*
Y505968D01*
X508508D01*
X533908D02*
Y510032D01*
X537972D01*
Y505968D01*
X533908D01*
X559308D02*
Y510032D01*
X563372D01*
Y505968D01*
X559308D01*
X584708D02*
Y510032D01*
X588772D01*
Y505968D01*
X584708D01*
X610108D02*
Y510032D01*
X614172D01*
Y505968D01*
X610108D01*
X635508D02*
Y510032D01*
X639572D01*
Y505968D01*
X635508D01*
X277368Y23368D02*
Y27432D01*
X281432D01*
Y23368D01*
X277368D01*
X302768D02*
Y27432D01*
X306832D01*
Y23368D01*
X302768D01*
X328168D02*
Y27432D01*
X332232D01*
Y23368D01*
X328168D01*
X353568D02*
Y27432D01*
X357632D01*
Y23368D01*
X353568D01*
X378968D02*
Y27432D01*
X383032D01*
Y23368D01*
X378968D01*
X404368D02*
Y27432D01*
X408432D01*
Y23368D01*
X404368D01*
X429768D02*
Y27432D01*
X433832D01*
Y23368D01*
X429768D01*
X455168D02*
Y27432D01*
X459232D01*
Y23368D01*
X455168D01*
X661571Y53868D02*
X662587Y55900D01*
X661571Y57932D01*
X663603Y56916D01*
X665635Y57932D01*
X664619Y55900D01*
X665635Y53868D01*
X663603Y54884D01*
X661571Y53868D01*
X20828D02*
X21844Y55900D01*
X20828Y57932D01*
X22860Y56916D01*
X24892Y57932D01*
X23876Y55900D01*
X24892Y53868D01*
X22860Y54884D01*
X20828Y53868D01*
Y498348D02*
X21844Y500380D01*
X20828Y502412D01*
X22860Y501396D01*
X24892Y502412D01*
X23876Y500380D01*
X24892Y498348D01*
X22860Y499364D01*
X20828Y498348D01*
X302514Y235966D02*
X300482Y240030D01*
X304546D01*
X302514Y235966D01*
X200152Y141224D02*
X201168Y142240D01*
X202184D01*
X201168Y143256D01*
X202184Y144272D01*
X201168D01*
X200152Y145288D01*
X199136Y144272D01*
X198120D01*
X199136Y143256D01*
X198120Y142240D01*
X199136D01*
X200152Y141224D01*
X579882Y341442D02*
X577850Y345507D01*
X581914D01*
X579882Y341442D01*
Y356175D02*
X577850Y360238D01*
X581914D01*
X579882Y356175D01*
Y371922D02*
X577850Y375987D01*
X581914D01*
X579882Y371922D01*
Y325948D02*
X577850Y330013D01*
X581914D01*
X579882Y325948D01*
Y309692D02*
X577850Y313757D01*
X581914D01*
X579882Y309692D01*
Y170942D02*
X577850Y175006D01*
X581914D01*
X579882Y170942D01*
Y187198D02*
X577850Y191262D01*
X581914D01*
X579882Y187198D01*
Y233172D02*
X577850Y237236D01*
X581914D01*
X579882Y233172D01*
Y217424D02*
X577850Y221488D01*
X581914D01*
X579882Y217424D01*
Y202692D02*
X577850Y206756D01*
X581914D01*
X579882Y202692D01*
X424942Y99568D02*
X422910Y103632D01*
X426974D01*
X424942Y99568D01*
X254000Y178308D02*
X251968Y182372D01*
X256032D01*
X254000Y178308D01*
X147320Y140208D02*
X148336Y141224D01*
X149352D01*
X148336Y142240D01*
X149352Y143256D01*
X148336D01*
X147320Y144272D01*
X146304Y143256D01*
X145288D01*
X146304Y142240D01*
X145288Y141224D01*
X146304D01*
X147320Y140208D01*
D41*
X52832Y254000D02*
G03*
X52832Y254000I-2032J0D01*
G01*
Y330200D02*
G03*
X52832Y330200I-2032J0D01*
G01*
M02*
