G04*
G04 #@! TF.GenerationSoftware,Altium Limited,Altium Designer,22.10.1 (41)*
G04*
G04 Layer_Physical_Order=2*
G04 Layer_Color=16711680*
%FSLAX44Y44*%
%MOMM*%
G71*
G04*
G04 #@! TF.SameCoordinates,3906EDFC-F3CD-4CEC-90A2-A8884CA3E33F*
G04*
G04*
G04 #@! TF.FilePolarity,Positive*
G04*
G01*
G75*
%ADD32C,0.7112*%
%ADD35C,1.5240*%
%ADD36R,1.5240X1.5240*%
%ADD37C,1.0160*%
%ADD38C,2.5400*%
%ADD39C,0.5080*%
G36*
X660400Y411480D02*
X661620Y410260D01*
Y406400D01*
X661669Y406157D01*
X661667Y405909D01*
X661766Y405666D01*
X661817Y405409D01*
X661955Y405203D01*
X662049Y404974D01*
X662233Y404787D01*
X662379Y404569D01*
X662585Y404431D01*
X662759Y404255D01*
X677799Y394081D01*
X683260Y388620D01*
Y40342D01*
X667085Y14057D01*
X667012Y13863D01*
X666898Y13691D01*
X666838Y13394D01*
X666733Y13110D01*
X666741Y12903D01*
X666700Y12700D01*
Y5080D01*
X3860D01*
Y530860D01*
X660400D01*
Y411480D01*
D02*
G37*
%LPC*%
G36*
X265498Y518160D02*
X265430D01*
Y509270D01*
X274320D01*
Y509338D01*
X273628Y511922D01*
X272290Y514238D01*
X270398Y516130D01*
X268082Y517468D01*
X265498Y518160D01*
D02*
G37*
G36*
X262890D02*
X262822D01*
X260238Y517468D01*
X257922Y516130D01*
X256030Y514238D01*
X254692Y511922D01*
X254000Y509338D01*
Y509270D01*
X262890D01*
Y518160D01*
D02*
G37*
G36*
X638878D02*
X636202D01*
X633618Y517468D01*
X631302Y516130D01*
X629410Y514238D01*
X628072Y511922D01*
X627380Y509338D01*
Y506662D01*
X628072Y504078D01*
X629410Y501762D01*
X631302Y499870D01*
X633618Y498532D01*
X636202Y497840D01*
X638878D01*
X641462Y498532D01*
X643778Y499870D01*
X645670Y501762D01*
X647008Y504078D01*
X647700Y506662D01*
Y509338D01*
X647008Y511922D01*
X645670Y514238D01*
X643778Y516130D01*
X641462Y517468D01*
X638878Y518160D01*
D02*
G37*
G36*
X613478D02*
X610802D01*
X608218Y517468D01*
X605902Y516130D01*
X604010Y514238D01*
X602672Y511922D01*
X601980Y509338D01*
Y506662D01*
X602672Y504078D01*
X604010Y501762D01*
X605902Y499870D01*
X608218Y498532D01*
X610802Y497840D01*
X613478D01*
X616062Y498532D01*
X618378Y499870D01*
X620270Y501762D01*
X621608Y504078D01*
X622300Y506662D01*
Y509338D01*
X621608Y511922D01*
X620270Y514238D01*
X618378Y516130D01*
X616062Y517468D01*
X613478Y518160D01*
D02*
G37*
G36*
X588078D02*
X585402D01*
X582818Y517468D01*
X580502Y516130D01*
X578610Y514238D01*
X577272Y511922D01*
X576580Y509338D01*
Y506662D01*
X577272Y504078D01*
X578610Y501762D01*
X580502Y499870D01*
X582818Y498532D01*
X585402Y497840D01*
X588078D01*
X590662Y498532D01*
X592978Y499870D01*
X594870Y501762D01*
X596208Y504078D01*
X596900Y506662D01*
Y509338D01*
X596208Y511922D01*
X594870Y514238D01*
X592978Y516130D01*
X590662Y517468D01*
X588078Y518160D01*
D02*
G37*
G36*
X562678D02*
X560002D01*
X557418Y517468D01*
X555102Y516130D01*
X553210Y514238D01*
X551872Y511922D01*
X551180Y509338D01*
Y506662D01*
X551872Y504078D01*
X553210Y501762D01*
X555102Y499870D01*
X557418Y498532D01*
X560002Y497840D01*
X562678D01*
X565262Y498532D01*
X567578Y499870D01*
X569470Y501762D01*
X570808Y504078D01*
X571500Y506662D01*
Y509338D01*
X570808Y511922D01*
X569470Y514238D01*
X567578Y516130D01*
X565262Y517468D01*
X562678Y518160D01*
D02*
G37*
G36*
X537278D02*
X534602D01*
X532018Y517468D01*
X529702Y516130D01*
X527810Y514238D01*
X526472Y511922D01*
X525780Y509338D01*
Y506662D01*
X526472Y504078D01*
X527810Y501762D01*
X529702Y499870D01*
X532018Y498532D01*
X534602Y497840D01*
X537278D01*
X539862Y498532D01*
X542178Y499870D01*
X544070Y501762D01*
X545408Y504078D01*
X546100Y506662D01*
Y509338D01*
X545408Y511922D01*
X544070Y514238D01*
X542178Y516130D01*
X539862Y517468D01*
X537278Y518160D01*
D02*
G37*
G36*
X511878D02*
X509202D01*
X506618Y517468D01*
X504302Y516130D01*
X502410Y514238D01*
X501072Y511922D01*
X500380Y509338D01*
Y506662D01*
X501072Y504078D01*
X502410Y501762D01*
X504302Y499870D01*
X506618Y498532D01*
X509202Y497840D01*
X511878D01*
X514462Y498532D01*
X516778Y499870D01*
X518670Y501762D01*
X520008Y504078D01*
X520700Y506662D01*
Y509338D01*
X520008Y511922D01*
X518670Y514238D01*
X516778Y516130D01*
X514462Y517468D01*
X511878Y518160D01*
D02*
G37*
G36*
X486478D02*
X483802D01*
X481218Y517468D01*
X478902Y516130D01*
X477010Y514238D01*
X475672Y511922D01*
X474980Y509338D01*
Y506662D01*
X475672Y504078D01*
X477010Y501762D01*
X478902Y499870D01*
X481218Y498532D01*
X483802Y497840D01*
X486478D01*
X489062Y498532D01*
X491378Y499870D01*
X493270Y501762D01*
X494608Y504078D01*
X495300Y506662D01*
Y509338D01*
X494608Y511922D01*
X493270Y514238D01*
X491378Y516130D01*
X489062Y517468D01*
X486478Y518160D01*
D02*
G37*
G36*
X469900D02*
X449580D01*
Y497840D01*
X469900D01*
Y518160D01*
D02*
G37*
G36*
X417898D02*
X415222D01*
X412638Y517468D01*
X410322Y516130D01*
X408430Y514238D01*
X407092Y511922D01*
X406400Y509338D01*
Y506662D01*
X407092Y504078D01*
X408430Y501762D01*
X410322Y499870D01*
X412638Y498532D01*
X415222Y497840D01*
X417898D01*
X420482Y498532D01*
X422798Y499870D01*
X424690Y501762D01*
X426028Y504078D01*
X426720Y506662D01*
Y509338D01*
X426028Y511922D01*
X424690Y514238D01*
X422798Y516130D01*
X420482Y517468D01*
X417898Y518160D01*
D02*
G37*
G36*
X392498D02*
X389822D01*
X387238Y517468D01*
X384922Y516130D01*
X383030Y514238D01*
X381692Y511922D01*
X381000Y509338D01*
Y506662D01*
X381692Y504078D01*
X383030Y501762D01*
X384922Y499870D01*
X387238Y498532D01*
X389822Y497840D01*
X392498D01*
X395082Y498532D01*
X397398Y499870D01*
X399290Y501762D01*
X400628Y504078D01*
X401320Y506662D01*
Y509338D01*
X400628Y511922D01*
X399290Y514238D01*
X397398Y516130D01*
X395082Y517468D01*
X392498Y518160D01*
D02*
G37*
G36*
X367098D02*
X364422D01*
X361838Y517468D01*
X359522Y516130D01*
X357630Y514238D01*
X356292Y511922D01*
X355600Y509338D01*
Y506662D01*
X356292Y504078D01*
X357630Y501762D01*
X359522Y499870D01*
X361838Y498532D01*
X364422Y497840D01*
X367098D01*
X369682Y498532D01*
X371998Y499870D01*
X373890Y501762D01*
X375228Y504078D01*
X375920Y506662D01*
Y509338D01*
X375228Y511922D01*
X373890Y514238D01*
X371998Y516130D01*
X369682Y517468D01*
X367098Y518160D01*
D02*
G37*
G36*
X341698D02*
X339022D01*
X336438Y517468D01*
X334122Y516130D01*
X332230Y514238D01*
X330892Y511922D01*
X330200Y509338D01*
Y506662D01*
X330892Y504078D01*
X332230Y501762D01*
X334122Y499870D01*
X336438Y498532D01*
X339022Y497840D01*
X341698D01*
X344282Y498532D01*
X346598Y499870D01*
X348490Y501762D01*
X349828Y504078D01*
X350520Y506662D01*
Y509338D01*
X349828Y511922D01*
X348490Y514238D01*
X346598Y516130D01*
X344282Y517468D01*
X341698Y518160D01*
D02*
G37*
G36*
X316298D02*
X313622D01*
X311038Y517468D01*
X308722Y516130D01*
X306830Y514238D01*
X305492Y511922D01*
X304800Y509338D01*
Y506662D01*
X305492Y504078D01*
X306830Y501762D01*
X308722Y499870D01*
X311038Y498532D01*
X313622Y497840D01*
X316298D01*
X318882Y498532D01*
X321198Y499870D01*
X323090Y501762D01*
X324428Y504078D01*
X325120Y506662D01*
Y509338D01*
X324428Y511922D01*
X323090Y514238D01*
X321198Y516130D01*
X318882Y517468D01*
X316298Y518160D01*
D02*
G37*
G36*
X290898D02*
X288222D01*
X285638Y517468D01*
X283322Y516130D01*
X281430Y514238D01*
X280092Y511922D01*
X279400Y509338D01*
Y506662D01*
X280092Y504078D01*
X281430Y501762D01*
X283322Y499870D01*
X285638Y498532D01*
X288222Y497840D01*
X290898D01*
X293482Y498532D01*
X295798Y499870D01*
X297690Y501762D01*
X299028Y504078D01*
X299720Y506662D01*
Y509338D01*
X299028Y511922D01*
X297690Y514238D01*
X295798Y516130D01*
X293482Y517468D01*
X290898Y518160D01*
D02*
G37*
G36*
X274320Y506730D02*
X265430D01*
Y497840D01*
X265498D01*
X268082Y498532D01*
X270398Y499870D01*
X272290Y501762D01*
X273628Y504078D01*
X274320Y506662D01*
Y506730D01*
D02*
G37*
G36*
X262890D02*
X254000D01*
Y506662D01*
X254692Y504078D01*
X256030Y501762D01*
X257922Y499870D01*
X260238Y498532D01*
X262822Y497840D01*
X262890D01*
Y506730D01*
D02*
G37*
G36*
X240098Y518160D02*
X237422D01*
X234838Y517468D01*
X232522Y516130D01*
X230630Y514238D01*
X229292Y511922D01*
X228600Y509338D01*
Y506662D01*
X229292Y504078D01*
X230630Y501762D01*
X232522Y499870D01*
X234838Y498532D01*
X237422Y497840D01*
X240098D01*
X242682Y498532D01*
X244998Y499870D01*
X246890Y501762D01*
X248228Y504078D01*
X248920Y506662D01*
Y509338D01*
X248228Y511922D01*
X246890Y514238D01*
X244998Y516130D01*
X242682Y517468D01*
X240098Y518160D01*
D02*
G37*
G36*
X214698D02*
X212022D01*
X209438Y517468D01*
X207122Y516130D01*
X205230Y514238D01*
X203892Y511922D01*
X203200Y509338D01*
Y506662D01*
X203892Y504078D01*
X205230Y501762D01*
X207122Y499870D01*
X209438Y498532D01*
X212022Y497840D01*
X214698D01*
X217282Y498532D01*
X219598Y499870D01*
X221490Y501762D01*
X222828Y504078D01*
X223520Y506662D01*
Y509338D01*
X222828Y511922D01*
X221490Y514238D01*
X219598Y516130D01*
X217282Y517468D01*
X214698Y518160D01*
D02*
G37*
G36*
X198120D02*
X177800D01*
Y497840D01*
X198120D01*
Y518160D01*
D02*
G37*
G36*
X22860Y511909D02*
X19876Y511516D01*
X17096Y510364D01*
X14708Y508532D01*
X12876Y506144D01*
X11724Y503364D01*
X11331Y500380D01*
X11724Y497396D01*
X12876Y494616D01*
X14708Y492228D01*
X17096Y490396D01*
X19876Y489244D01*
X22860Y488851D01*
X25844Y489244D01*
X28624Y490396D01*
X31012Y492228D01*
X32844Y494616D01*
X33996Y497396D01*
X34389Y500380D01*
X33996Y503364D01*
X32844Y506144D01*
X31012Y508532D01*
X28624Y510364D01*
X25844Y511516D01*
X22860Y511909D01*
D02*
G37*
G36*
X581152Y378927D02*
Y375224D01*
X584855D01*
X584189Y376832D01*
X582760Y378261D01*
X581152Y378927D01*
D02*
G37*
G36*
X578612D02*
X577004Y378261D01*
X575575Y376832D01*
X574910Y375224D01*
X578612D01*
Y378927D01*
D02*
G37*
G36*
X584855Y372685D02*
X581152D01*
Y368982D01*
X582760Y369648D01*
X584189Y371077D01*
X584855Y372685D01*
D02*
G37*
G36*
X578612D02*
X574910D01*
X575575Y371077D01*
X577004Y369648D01*
X578612Y368982D01*
Y372685D01*
D02*
G37*
G36*
X581152Y363179D02*
Y359477D01*
X584855D01*
X584189Y361084D01*
X582760Y362513D01*
X581152Y363179D01*
D02*
G37*
G36*
X578612D02*
X577004Y362513D01*
X575575Y361084D01*
X574910Y359477D01*
X578612D01*
Y363179D01*
D02*
G37*
G36*
X584855Y356936D02*
X581152D01*
Y353234D01*
X582760Y353900D01*
X584189Y355329D01*
X584855Y356936D01*
D02*
G37*
G36*
X578612D02*
X574910D01*
X575575Y355329D01*
X577004Y353900D01*
X578612Y353234D01*
Y356936D01*
D02*
G37*
G36*
X581152Y348447D02*
Y344744D01*
X584855D01*
X584189Y346352D01*
X582760Y347781D01*
X581152Y348447D01*
D02*
G37*
G36*
X578612D02*
X577004Y347781D01*
X575575Y346352D01*
X574910Y344744D01*
X578612D01*
Y348447D01*
D02*
G37*
G36*
X584855Y342205D02*
X581152D01*
Y338502D01*
X582760Y339168D01*
X584189Y340597D01*
X584855Y342205D01*
D02*
G37*
G36*
X578612D02*
X574910D01*
X575575Y340597D01*
X577004Y339168D01*
X578612Y338502D01*
Y342205D01*
D02*
G37*
G36*
X581152Y332953D02*
Y329250D01*
X584855D01*
X584189Y330858D01*
X582760Y332287D01*
X581152Y332953D01*
D02*
G37*
G36*
X578612D02*
X577004Y332287D01*
X575575Y330858D01*
X574910Y329250D01*
X578612D01*
Y332953D01*
D02*
G37*
G36*
X584855Y326711D02*
X581152D01*
Y323008D01*
X582760Y323674D01*
X584189Y325103D01*
X584855Y326711D01*
D02*
G37*
G36*
X578612D02*
X574910D01*
X575575Y325103D01*
X577004Y323674D01*
X578612Y323008D01*
Y326711D01*
D02*
G37*
G36*
X52301Y345440D02*
X49299D01*
X46355Y344854D01*
X43581Y343705D01*
X41085Y342038D01*
X38962Y339915D01*
X37294Y337419D01*
X36146Y334645D01*
X35560Y331701D01*
Y328699D01*
X36146Y325755D01*
X37294Y322981D01*
X38962Y320485D01*
X41085Y318362D01*
X43581Y316695D01*
X46355Y315546D01*
X49299Y314960D01*
X52301D01*
X55245Y315546D01*
X58019Y316695D01*
X60515Y318362D01*
X62638Y320485D01*
X64306Y322981D01*
X65454Y325755D01*
X66040Y328699D01*
Y331701D01*
X65454Y334645D01*
X64306Y337419D01*
X62638Y339915D01*
X60515Y342038D01*
X58019Y343705D01*
X55245Y344854D01*
X52301Y345440D01*
D02*
G37*
G36*
X581152Y316697D02*
Y312994D01*
X584855D01*
X584189Y314602D01*
X582760Y316031D01*
X581152Y316697D01*
D02*
G37*
G36*
X578612D02*
X577004Y316031D01*
X575575Y314602D01*
X574910Y312994D01*
X578612D01*
Y316697D01*
D02*
G37*
G36*
X584855Y310455D02*
X581152D01*
Y306752D01*
X582760Y307418D01*
X584189Y308847D01*
X584855Y310455D01*
D02*
G37*
G36*
X578612D02*
X574910D01*
X575575Y308847D01*
X577004Y307418D01*
X578612Y306752D01*
Y310455D01*
D02*
G37*
G36*
X58420Y267237D02*
Y261620D01*
X64037D01*
X62638Y263715D01*
X60515Y265838D01*
X58420Y267237D01*
D02*
G37*
G36*
X43180D02*
X41085Y265838D01*
X38962Y263715D01*
X37562Y261620D01*
X43180D01*
Y267237D01*
D02*
G37*
G36*
Y246380D02*
X37562D01*
X38962Y244285D01*
X41085Y242162D01*
X43180Y240763D01*
Y246380D01*
D02*
G37*
G36*
X64037D02*
X58420D01*
Y240763D01*
X60515Y242162D01*
X62638Y244285D01*
X64037Y246380D01*
D02*
G37*
G36*
X303784Y242971D02*
Y239268D01*
X307486D01*
X306821Y240876D01*
X305392Y242305D01*
X303784Y242971D01*
D02*
G37*
G36*
X301244D02*
X299636Y242305D01*
X298207Y240876D01*
X297542Y239268D01*
X301244D01*
Y242971D01*
D02*
G37*
G36*
X581152Y240177D02*
Y236474D01*
X584855D01*
X584189Y238082D01*
X582760Y239511D01*
X581152Y240177D01*
D02*
G37*
G36*
X578612D02*
X577004Y239511D01*
X575575Y238082D01*
X574910Y236474D01*
X578612D01*
Y240177D01*
D02*
G37*
G36*
X307486Y236728D02*
X303784D01*
Y233025D01*
X305392Y233691D01*
X306821Y235120D01*
X307486Y236728D01*
D02*
G37*
G36*
X301244D02*
X297542D01*
X298207Y235120D01*
X299636Y233691D01*
X301244Y233025D01*
Y236728D01*
D02*
G37*
G36*
X584855Y233934D02*
X581152D01*
Y230231D01*
X582760Y230897D01*
X584189Y232326D01*
X584855Y233934D01*
D02*
G37*
G36*
X578612D02*
X574910D01*
X575575Y232326D01*
X577004Y230897D01*
X578612Y230231D01*
Y233934D01*
D02*
G37*
G36*
X581152Y224429D02*
Y220726D01*
X584855D01*
X584189Y222334D01*
X582760Y223763D01*
X581152Y224429D01*
D02*
G37*
G36*
X578612D02*
X577004Y223763D01*
X575575Y222334D01*
X574910Y220726D01*
X578612D01*
Y224429D01*
D02*
G37*
G36*
X584855Y218186D02*
X581152D01*
Y214484D01*
X582760Y215149D01*
X584189Y216578D01*
X584855Y218186D01*
D02*
G37*
G36*
X578612D02*
X574910D01*
X575575Y216578D01*
X577004Y215149D01*
X578612Y214484D01*
Y218186D01*
D02*
G37*
G36*
X581152Y209697D02*
Y205994D01*
X584855D01*
X584189Y207602D01*
X582760Y209031D01*
X581152Y209697D01*
D02*
G37*
G36*
X578612D02*
X577004Y209031D01*
X575575Y207602D01*
X574910Y205994D01*
X578612D01*
Y209697D01*
D02*
G37*
G36*
X584855Y203454D02*
X581152D01*
Y199751D01*
X582760Y200417D01*
X584189Y201846D01*
X584855Y203454D01*
D02*
G37*
G36*
X578612D02*
X574910D01*
X575575Y201846D01*
X577004Y200417D01*
X578612Y199751D01*
Y203454D01*
D02*
G37*
G36*
X581152Y194202D02*
Y190500D01*
X584855D01*
X584189Y192108D01*
X582760Y193537D01*
X581152Y194202D01*
D02*
G37*
G36*
X578612D02*
X577004Y193537D01*
X575575Y192108D01*
X574910Y190500D01*
X578612D01*
Y194202D01*
D02*
G37*
G36*
X584855Y187960D02*
X581152D01*
Y184258D01*
X582760Y184923D01*
X584189Y186352D01*
X584855Y187960D01*
D02*
G37*
G36*
X578612D02*
X574910D01*
X575575Y186352D01*
X577004Y184923D01*
X578612Y184258D01*
Y187960D01*
D02*
G37*
G36*
X255270Y185312D02*
Y181610D01*
X258972D01*
X258307Y183218D01*
X256878Y184647D01*
X255270Y185312D01*
D02*
G37*
G36*
X252730D02*
X251122Y184647D01*
X249693Y183218D01*
X249028Y181610D01*
X252730D01*
Y185312D01*
D02*
G37*
G36*
X258972Y179070D02*
X255270D01*
Y175368D01*
X256878Y176033D01*
X258307Y177462D01*
X258972Y179070D01*
D02*
G37*
G36*
X252730D02*
X249028D01*
X249693Y177462D01*
X251122Y176033D01*
X252730Y175368D01*
Y179070D01*
D02*
G37*
G36*
X581152Y177946D02*
Y174244D01*
X584855D01*
X584189Y175852D01*
X582760Y177281D01*
X581152Y177946D01*
D02*
G37*
G36*
X578612D02*
X577004Y177281D01*
X575575Y175852D01*
X574910Y174244D01*
X578612D01*
Y177946D01*
D02*
G37*
G36*
X584855Y171704D02*
X581152D01*
Y168001D01*
X582760Y168667D01*
X584189Y170096D01*
X584855Y171704D01*
D02*
G37*
G36*
X578612D02*
X574910D01*
X575575Y170096D01*
X577004Y168667D01*
X578612Y168001D01*
Y171704D01*
D02*
G37*
G36*
X201422Y149328D02*
Y144526D01*
X206224D01*
X205320Y146709D01*
X203605Y148424D01*
X201422Y149328D01*
D02*
G37*
G36*
X198882D02*
X196699Y148424D01*
X194984Y146709D01*
X194080Y144526D01*
X198882D01*
Y149328D01*
D02*
G37*
G36*
X148590Y148312D02*
Y143510D01*
X153392D01*
X152488Y145693D01*
X150773Y147408D01*
X148590Y148312D01*
D02*
G37*
G36*
X146050D02*
X143867Y147408D01*
X142152Y145693D01*
X141248Y143510D01*
X146050D01*
Y148312D01*
D02*
G37*
G36*
X206224Y141986D02*
X201422D01*
Y137184D01*
X203605Y138088D01*
X205320Y139803D01*
X206224Y141986D01*
D02*
G37*
G36*
X198882D02*
X194080D01*
X194984Y139803D01*
X196699Y138088D01*
X198882Y137184D01*
Y141986D01*
D02*
G37*
G36*
X153392Y140970D02*
X148590D01*
Y136168D01*
X150773Y137072D01*
X152488Y138787D01*
X153392Y140970D01*
D02*
G37*
G36*
X146050D02*
X141248D01*
X142152Y138787D01*
X143867Y137072D01*
X146050Y136168D01*
Y140970D01*
D02*
G37*
G36*
X426212Y106573D02*
Y102870D01*
X429915D01*
X429249Y104478D01*
X427820Y105907D01*
X426212Y106573D01*
D02*
G37*
G36*
X423672D02*
X422064Y105907D01*
X420635Y104478D01*
X419969Y102870D01*
X423672D01*
Y106573D01*
D02*
G37*
G36*
X429915Y100330D02*
X426212D01*
Y96628D01*
X427820Y97293D01*
X429249Y98722D01*
X429915Y100330D01*
D02*
G37*
G36*
X423672D02*
X419969D01*
X420635Y98722D01*
X422064Y97293D01*
X423672Y96628D01*
Y100330D01*
D02*
G37*
G36*
X663603Y67428D02*
X660619Y67035D01*
X657839Y65884D01*
X655451Y64052D01*
X653619Y61664D01*
X652467Y58883D01*
X652074Y55900D01*
X652467Y52916D01*
X653619Y50135D01*
X655451Y47748D01*
X657839Y45915D01*
X660619Y44764D01*
X663603Y44371D01*
X666587Y44764D01*
X669367Y45915D01*
X671755Y47748D01*
X673587Y50135D01*
X674739Y52916D01*
X675131Y55900D01*
X674739Y58883D01*
X673587Y61664D01*
X671755Y64052D01*
X669367Y65884D01*
X666587Y67035D01*
X663603Y67428D01*
D02*
G37*
G36*
X22860D02*
X19876Y67035D01*
X17096Y65884D01*
X14708Y64052D01*
X12876Y61664D01*
X11724Y58883D01*
X11331Y55900D01*
X11724Y52916D01*
X12876Y50135D01*
X14708Y47748D01*
X17096Y45915D01*
X19876Y44764D01*
X22860Y44371D01*
X25844Y44764D01*
X28624Y45915D01*
X31012Y47748D01*
X32844Y50135D01*
X33996Y52916D01*
X34389Y55900D01*
X33996Y58883D01*
X32844Y61664D01*
X31012Y64052D01*
X28624Y65884D01*
X25844Y67035D01*
X22860Y67428D01*
D02*
G37*
G36*
X433138Y35560D02*
X433070D01*
Y26670D01*
X441960D01*
Y26738D01*
X441268Y29322D01*
X439930Y31638D01*
X438038Y33530D01*
X435722Y34868D01*
X433138Y35560D01*
D02*
G37*
G36*
X430530D02*
X430462D01*
X427878Y34868D01*
X425562Y33530D01*
X423670Y31638D01*
X422332Y29322D01*
X421640Y26738D01*
Y26670D01*
X430530D01*
Y35560D01*
D02*
G37*
G36*
X407738D02*
X407670D01*
Y26670D01*
X416560D01*
Y26738D01*
X415868Y29322D01*
X414530Y31638D01*
X412638Y33530D01*
X410322Y34868D01*
X407738Y35560D01*
D02*
G37*
G36*
X405130D02*
X405062D01*
X402478Y34868D01*
X400162Y33530D01*
X398270Y31638D01*
X396932Y29322D01*
X396240Y26738D01*
Y26670D01*
X405130D01*
Y35560D01*
D02*
G37*
G36*
X636338D02*
X633662D01*
X631078Y34868D01*
X628762Y33530D01*
X626870Y31638D01*
X625532Y29322D01*
X624840Y26738D01*
Y24062D01*
X625532Y21478D01*
X626870Y19162D01*
X628762Y17270D01*
X631078Y15932D01*
X633662Y15240D01*
X636338D01*
X638922Y15932D01*
X641238Y17270D01*
X643130Y19162D01*
X644468Y21478D01*
X645160Y24062D01*
Y26738D01*
X644468Y29322D01*
X643130Y31638D01*
X641238Y33530D01*
X638922Y34868D01*
X636338Y35560D01*
D02*
G37*
G36*
X610938D02*
X608262D01*
X605678Y34868D01*
X603362Y33530D01*
X601470Y31638D01*
X600132Y29322D01*
X599440Y26738D01*
Y24062D01*
X600132Y21478D01*
X601470Y19162D01*
X603362Y17270D01*
X605678Y15932D01*
X608262Y15240D01*
X610938D01*
X613522Y15932D01*
X615838Y17270D01*
X617730Y19162D01*
X619068Y21478D01*
X619760Y24062D01*
Y26738D01*
X619068Y29322D01*
X617730Y31638D01*
X615838Y33530D01*
X613522Y34868D01*
X610938Y35560D01*
D02*
G37*
G36*
X585538D02*
X582862D01*
X580278Y34868D01*
X577962Y33530D01*
X576070Y31638D01*
X574732Y29322D01*
X574040Y26738D01*
Y24062D01*
X574732Y21478D01*
X576070Y19162D01*
X577962Y17270D01*
X580278Y15932D01*
X582862Y15240D01*
X585538D01*
X588122Y15932D01*
X590438Y17270D01*
X592330Y19162D01*
X593668Y21478D01*
X594360Y24062D01*
Y26738D01*
X593668Y29322D01*
X592330Y31638D01*
X590438Y33530D01*
X588122Y34868D01*
X585538Y35560D01*
D02*
G37*
G36*
X560138D02*
X557462D01*
X554878Y34868D01*
X552562Y33530D01*
X550670Y31638D01*
X549332Y29322D01*
X548640Y26738D01*
Y24062D01*
X549332Y21478D01*
X550670Y19162D01*
X552562Y17270D01*
X554878Y15932D01*
X557462Y15240D01*
X560138D01*
X562722Y15932D01*
X565038Y17270D01*
X566930Y19162D01*
X568268Y21478D01*
X568960Y24062D01*
Y26738D01*
X568268Y29322D01*
X566930Y31638D01*
X565038Y33530D01*
X562722Y34868D01*
X560138Y35560D01*
D02*
G37*
G36*
X534738D02*
X532062D01*
X529478Y34868D01*
X527162Y33530D01*
X525270Y31638D01*
X523932Y29322D01*
X523240Y26738D01*
Y24062D01*
X523932Y21478D01*
X525270Y19162D01*
X527162Y17270D01*
X529478Y15932D01*
X532062Y15240D01*
X534738D01*
X537322Y15932D01*
X539638Y17270D01*
X541530Y19162D01*
X542868Y21478D01*
X543560Y24062D01*
Y26738D01*
X542868Y29322D01*
X541530Y31638D01*
X539638Y33530D01*
X537322Y34868D01*
X534738Y35560D01*
D02*
G37*
G36*
X518160D02*
X497840D01*
Y15240D01*
X518160D01*
Y35560D01*
D02*
G37*
G36*
X458538D02*
X455862D01*
X453278Y34868D01*
X450962Y33530D01*
X449070Y31638D01*
X447732Y29322D01*
X447040Y26738D01*
Y24062D01*
X447732Y21478D01*
X449070Y19162D01*
X450962Y17270D01*
X453278Y15932D01*
X455862Y15240D01*
X458538D01*
X461122Y15932D01*
X463438Y17270D01*
X465330Y19162D01*
X466668Y21478D01*
X467360Y24062D01*
Y26738D01*
X466668Y29322D01*
X465330Y31638D01*
X463438Y33530D01*
X461122Y34868D01*
X458538Y35560D01*
D02*
G37*
G36*
X441960Y24130D02*
X433070D01*
Y15240D01*
X433138D01*
X435722Y15932D01*
X438038Y17270D01*
X439930Y19162D01*
X441268Y21478D01*
X441960Y24062D01*
Y24130D01*
D02*
G37*
G36*
X430530D02*
X421640D01*
Y24062D01*
X422332Y21478D01*
X423670Y19162D01*
X425562Y17270D01*
X427878Y15932D01*
X430462Y15240D01*
X430530D01*
Y24130D01*
D02*
G37*
G36*
X416560D02*
X407670D01*
Y15240D01*
X407738D01*
X410322Y15932D01*
X412638Y17270D01*
X414530Y19162D01*
X415868Y21478D01*
X416560Y24062D01*
Y24130D01*
D02*
G37*
G36*
X405130D02*
X396240D01*
Y24062D01*
X396932Y21478D01*
X398270Y19162D01*
X400162Y17270D01*
X402478Y15932D01*
X405062Y15240D01*
X405130D01*
Y24130D01*
D02*
G37*
G36*
X382338Y35560D02*
X379662D01*
X377078Y34868D01*
X374762Y33530D01*
X372870Y31638D01*
X371532Y29322D01*
X370840Y26738D01*
Y24062D01*
X371532Y21478D01*
X372870Y19162D01*
X374762Y17270D01*
X377078Y15932D01*
X379662Y15240D01*
X382338D01*
X384922Y15932D01*
X387238Y17270D01*
X389130Y19162D01*
X390468Y21478D01*
X391160Y24062D01*
Y26738D01*
X390468Y29322D01*
X389130Y31638D01*
X387238Y33530D01*
X384922Y34868D01*
X382338Y35560D01*
D02*
G37*
G36*
X356938D02*
X354262D01*
X351678Y34868D01*
X349362Y33530D01*
X347470Y31638D01*
X346132Y29322D01*
X345440Y26738D01*
Y24062D01*
X346132Y21478D01*
X347470Y19162D01*
X349362Y17270D01*
X351678Y15932D01*
X354262Y15240D01*
X356938D01*
X359522Y15932D01*
X361838Y17270D01*
X363730Y19162D01*
X365068Y21478D01*
X365760Y24062D01*
Y26738D01*
X365068Y29322D01*
X363730Y31638D01*
X361838Y33530D01*
X359522Y34868D01*
X356938Y35560D01*
D02*
G37*
G36*
X331538D02*
X328862D01*
X326278Y34868D01*
X323962Y33530D01*
X322070Y31638D01*
X320732Y29322D01*
X320040Y26738D01*
Y24062D01*
X320732Y21478D01*
X322070Y19162D01*
X323962Y17270D01*
X326278Y15932D01*
X328862Y15240D01*
X331538D01*
X334122Y15932D01*
X336438Y17270D01*
X338330Y19162D01*
X339668Y21478D01*
X340360Y24062D01*
Y26738D01*
X339668Y29322D01*
X338330Y31638D01*
X336438Y33530D01*
X334122Y34868D01*
X331538Y35560D01*
D02*
G37*
G36*
X306138D02*
X303462D01*
X300878Y34868D01*
X298562Y33530D01*
X296670Y31638D01*
X295332Y29322D01*
X294640Y26738D01*
Y24062D01*
X295332Y21478D01*
X296670Y19162D01*
X298562Y17270D01*
X300878Y15932D01*
X303462Y15240D01*
X306138D01*
X308722Y15932D01*
X311038Y17270D01*
X312930Y19162D01*
X314268Y21478D01*
X314960Y24062D01*
Y26738D01*
X314268Y29322D01*
X312930Y31638D01*
X311038Y33530D01*
X308722Y34868D01*
X306138Y35560D01*
D02*
G37*
G36*
X289560D02*
X269240D01*
Y15240D01*
X289560D01*
Y35560D01*
D02*
G37*
%LPD*%
D32*
X200152Y143256D02*
D03*
X147320Y142240D02*
D03*
D35*
X635000Y25400D02*
D03*
X609600D02*
D03*
X584200D02*
D03*
X558800D02*
D03*
X533400D02*
D03*
X365760Y508000D02*
D03*
X340360D02*
D03*
X314960D02*
D03*
X289560D02*
D03*
X264160D02*
D03*
X238760D02*
D03*
X213360D02*
D03*
X416560D02*
D03*
X391160D02*
D03*
X485140D02*
D03*
X510540D02*
D03*
X535940D02*
D03*
X561340D02*
D03*
X586740D02*
D03*
X612140D02*
D03*
X637540D02*
D03*
X304800Y25400D02*
D03*
X330200D02*
D03*
X355600D02*
D03*
X381000D02*
D03*
X406400D02*
D03*
X431800D02*
D03*
X457200D02*
D03*
D36*
X508000D02*
D03*
X187960Y508000D02*
D03*
X459740D02*
D03*
X279400Y25400D02*
D03*
D37*
X663603Y55900D02*
D03*
X22860D02*
D03*
Y500380D02*
D03*
D38*
X50800Y254000D02*
D03*
Y330200D02*
D03*
D39*
X302514Y237998D02*
D03*
X579882Y343475D02*
D03*
Y358206D02*
D03*
Y373955D02*
D03*
Y327980D02*
D03*
Y311724D02*
D03*
Y172974D02*
D03*
Y189230D02*
D03*
Y235204D02*
D03*
Y219456D02*
D03*
Y204724D02*
D03*
X424942Y101600D02*
D03*
X254000Y180340D02*
D03*
M02*
