G04*
G04 #@! TF.GenerationSoftware,Altium Limited,Altium Designer,22.10.1 (41)*
G04*
G04 Layer_Color=8421504*
%FSLAX44Y44*%
%MOMM*%
G71*
G04*
G04 #@! TF.SameCoordinates,3906EDFC-F3CD-4CEC-90A2-A8884CA3E33F*
G04*
G04*
G04 #@! TF.FilePolarity,Positive*
G04*
G01*
G75*
%ADD14O,0.6000X1.0000*%
%ADD15R,0.3500X0.4500*%
%ADD16R,2.3300X1.9900*%
%ADD17R,5.7000X1.6000*%
%ADD18R,0.2500X0.3000*%
%ADD19R,1.4000X0.9500*%
%ADD20R,3.9000X6.7600*%
%ADD21R,0.7000X6.7600*%
%ADD22R,0.6500X1.0500*%
D14*
X276860Y195580D02*
D03*
X289560D02*
D03*
X302260D02*
D03*
X276860Y223580D02*
D03*
X289560D02*
D03*
X302260D02*
D03*
D15*
X276860Y168350D02*
D03*
Y161850D02*
D03*
D16*
X200660Y225680D02*
D03*
Y165480D02*
D03*
X147320Y225680D02*
D03*
Y165480D02*
D03*
D17*
X386080Y161280D02*
D03*
Y208280D02*
D03*
D18*
X264112Y168402D02*
D03*
X258112D02*
D03*
D19*
X332740Y191410D02*
D03*
Y209910D02*
D03*
D20*
X527812Y341376D02*
D03*
Y204216D02*
D03*
D21*
X557812Y341376D02*
D03*
X497812D02*
D03*
X557812Y204216D02*
D03*
X497812D02*
D03*
D22*
X385200Y129540D02*
D03*
X402200D02*
D03*
X385200Y101600D02*
D03*
X402200D02*
D03*
M02*
