G04*
G04 #@! TF.GenerationSoftware,Altium Limited,Altium Designer,22.10.1 (41)*
G04*
G04 Layer_Color=8388736*
%FSLAX44Y44*%
%MOMM*%
G71*
G04*
G04 #@! TF.SameCoordinates,3906EDFC-F3CD-4CEC-90A2-A8884CA3E33F*
G04*
G04*
G04 #@! TF.FilePolarity,Negative*
G04*
G01*
G75*
%ADD16R,2.3300X1.9900*%
%ADD17R,5.7000X1.6000*%
%ADD18R,0.2500X0.3000*%
%ADD19R,1.4000X0.9500*%
%ADD23O,0.8032X1.2032*%
%ADD24R,0.5532X0.6532*%
%ADD25R,4.1032X6.9632*%
%ADD26R,0.9032X6.9632*%
%ADD27R,0.8532X1.2532*%
%ADD28C,1.7272*%
%ADD29R,1.7272X1.7272*%
%ADD30C,2.0320*%
%ADD31C,2.7432*%
%ADD32C,0.7112*%
%ADD33C,0.9144*%
D16*
X200660Y225680D02*
D03*
Y165480D02*
D03*
X147320Y225680D02*
D03*
Y165480D02*
D03*
D17*
X386080Y161280D02*
D03*
Y208280D02*
D03*
D18*
X264112Y168402D02*
D03*
X258112D02*
D03*
D19*
X332740Y191410D02*
D03*
Y209910D02*
D03*
D23*
X276860Y195580D02*
D03*
X289560D02*
D03*
X302260D02*
D03*
X276860Y223580D02*
D03*
X289560D02*
D03*
X302260D02*
D03*
D24*
X276860Y168350D02*
D03*
Y161850D02*
D03*
D25*
X527812Y341376D02*
D03*
Y204216D02*
D03*
D26*
X557812Y341376D02*
D03*
X497812D02*
D03*
X557812Y204216D02*
D03*
X497812D02*
D03*
D27*
X385200Y129540D02*
D03*
X402200D02*
D03*
X385200Y101600D02*
D03*
X402200D02*
D03*
D28*
X635000Y25400D02*
D03*
X609600D02*
D03*
X584200D02*
D03*
X558800D02*
D03*
X533400D02*
D03*
X365760Y508000D02*
D03*
X340360D02*
D03*
X314960D02*
D03*
X289560D02*
D03*
X264160D02*
D03*
X238760D02*
D03*
X213360D02*
D03*
X416560D02*
D03*
X391160D02*
D03*
X485140D02*
D03*
X510540D02*
D03*
X535940D02*
D03*
X561340D02*
D03*
X586740D02*
D03*
X612140D02*
D03*
X637540D02*
D03*
X304800Y25400D02*
D03*
X330200D02*
D03*
X355600D02*
D03*
X381000D02*
D03*
X406400D02*
D03*
X431800D02*
D03*
X457200D02*
D03*
D29*
X508000D02*
D03*
X187960Y508000D02*
D03*
X459740D02*
D03*
X279400Y25400D02*
D03*
D30*
X663603Y55900D02*
D03*
X22860D02*
D03*
Y500380D02*
D03*
D31*
X50800Y254000D02*
D03*
Y330200D02*
D03*
D32*
X302514Y237998D02*
D03*
X579882Y343475D02*
D03*
Y358206D02*
D03*
Y373955D02*
D03*
Y327980D02*
D03*
Y311724D02*
D03*
Y172974D02*
D03*
Y189230D02*
D03*
Y235204D02*
D03*
Y219456D02*
D03*
Y204724D02*
D03*
X424942Y101600D02*
D03*
X254000Y180340D02*
D03*
D33*
X200152Y143256D02*
D03*
X147320Y142240D02*
D03*
M02*
